{"title":"Serenity(2005)MP-4[DaScubaDude]","uid":12352214,"size":1456818885,"categoryP":"video","categoryS":"movies","magnet":"?xt=urn:btih:7858ea2a6503a32f941e2a0c7f9b9c5a1019b80f&amp;dn=Serenity%282005%29MP-4%5BDaScubaDude%5D&amp;tr=udp%3A%2F%2Ftracker.openbittorrent.com%3A80&amp;tr=udp%3A%2F%2Fopen.demonii.com%3A1337&amp;tr=udp%3A%2F%2Ftracker.coppersurfer.tk%3A6969&amp;tr=udp%3A%2F%2Fexodus.desync.com%3A6969","seeders":0,"leechers":0,"uploader":"dascuba","files":1,"time":1441440740,"description":"Serenity (2005)\nPG-13  |  119 min  |  Action, Adventure, Sci-Fi  |  30 September 2005 (USA)\n8.0 Your rating:   -/10   Ratings: 8.0/10 from 227,208 users   Metascore: 74/100 \nReviews: 1,577 user | 279 critic | 34 from Metacritic.com\nThe crew of the ship Serenity tries to evade an assassin sent to recapture one of their number who is telepathic.\n\nDirector: Joss Whedon\nWriter: Joss Whedon\nStars: Nathan Fillion, Gina Torres, Chiwetel Ejiofor\n\nGeneral\nComplete name                            : C:SerenitySERENITY_Title1_1.mp4\nFormat                                   : MPEG-4\nFormat profile                           : Base Media\nCodec ID                                 : isom\nFile size                                : 1.36 GiB\nDuration                                 : 1h 58mn\nOverall bit rate mode                    : Constant\nOverall bit rate                         : 1 633 Kbps\nMovie name                               : SERENITY\nGenre                                    : Science_Fiction\nWriting application                      : Lavf54.6.100\n\nVideo\nID                                       : 1\nFormat                                   : MPEG-4 Visual\nFormat settings, BVOP                    : No\nFormat settings, QPel                    : No\nFormat settings, GMC                     : No warppoints\nFormat settings, Matrix                  : Default (H.263)\nCodec ID                                 : 20\nDuration                                 : 1h 58mn\nBit rate mode                            : Constant\nBit rate                                 : 1 499 Kbps\nWidth                                    : 720 pixels\nHeight                                   : 540 pixels\nDisplay aspect ratio                     : 4:3\nFrame rate mode                          : Constant\nFrame rate                               : 29.970 fps\nColor space                              : YUV\nChroma subsampling                       : 4:2:0\nBit depth                                : 8 bits\nScan type                                : Progressive\nCompression mode                         : Lossy\nBits/(Pixel*Frame)                       : 0.129\nStream size                              : 1.25 GiB (92%)\nWriting library                          : Lavc54.23.100\n\nAudio\nID                                       : 2\nFormat                                   : MPEG Audio\nFormat version                           : Version 1\nFormat profile                           : Layer 3\nCodec ID                                 : 6B\nDuration                                 : 1h 58mn\nBit rate mode                            : Constant\nBit rate                                 : 128 Kbps\nChannel(s)                               : 2 channels\nSampling rate                            : 44.1 KHz\nCompression mode                         : Lossy\nStream size                              : 109 MiB (8%)\nWriting library                          : LAME3.99.5","torrent":{"xt":"urn:btih:7858ea2a6503a32f941e2a0c7f9b9c5a1019b80f","amp;dn":"Serenity%282005%29MP-4%5BDaScubaDude%5D","amp;tr":["udp%3A%2F%2Ftracker.openbittorrent.com%3A80","udp%3A%2F%2Fopen.demonii.com%3A1337","udp%3A%2F%2Ftracker.coppersurfer.tk%3A6969","udp%3A%2F%2Fexodus.desync.com%3A6969"],"infoHash":"7858ea2a6503a32f941e2a0c7f9b9c5a1019b80f","infoHashBuffer":{"type":"Buffer","data":[120,88,234,42,101,3,163,47,148,30,42,12,127,155,156,90,16,25,184,15]},"announce":[],"urlList":[]}}